<?xml version="1.0" encoding="UTF-8" standalone="no"?>
<svg
   width="200"
   height="200"
   viewBox="0 0 200 200"
   fill="none"
   version="1.1"
   id="svg82"
   xmlns="http://www.w3.org/2000/svg"
   xmlns:svg="http://www.w3.org/2000/svg">
  <g
     id="g82"
     transform="translate(0,-15.39699)">
    <path
       d="m 161.49,56.21 c -0.11,-0.79 -0.61,-1.48 -1.33,-1.82 L 101.38,28.11 c -0.67,-0.3 -1.44,-0.3 -2.11,0 L 41.19,54.82 c -0.8,0.37 -1.36,1.13 -1.48,2 -0.99,7.29 -2.55,22.32 -0.68,37.16 4.99,39.9 31.06,65.19 60.98,78.2 0.67,0.3 1.43,0.29 2.09,-0.01 29.78,-13.21 55.49,-38.65 60.42,-78.19 1.67,-13.46 0.23,-28.89 -1.03,-37.77 z"
       fill="#0b281d"
       id="path1" />
    <path
       d="M 100.31,167.7 C 71.52,155.18 47.31,131.34 42.62,93.48 41.03,80.44 42.08,67.18 43.24,58.32 l 57.07,-26.31 57.6,25.78 c 1.16,8.39 2.18,22.12 0.6,35.16 -4.69,37.86 -28.39,61.96 -58.2,74.75 z"
       fill="url(#paint0_linear_131_2001)"
       id="path2"
       style="fill:url(#paint0_linear_131_2001)" />
    <path
       d="M 100.31,164.62 C 73.24,152.76 50.07,130.18 45.68,94.52 44.27,82.89 44.81,71.16 46.22,60.18 l 54.09,-25.09 55.79,24.52 c 1.29,9.54 1.66,21.3 0.25,32.93 -4.39,35.66 -27.16,59.93 -56.04,72.08 z"
       fill="url(#paint1_linear_131_2001)"
       id="path3"
       style="fill:url(#paint1_linear_131_2001)" />
    <path
       d="M 100.12,37.06 48.61,61.43 c -1.27,10.28 -1.73,21.35 -0.41,32.34 4.12,33.51 25.56,55.66 51.78,67.33 27.2,-11.97 49.11,-35.25 53.06,-67.87 1.32,-10.99 0.78,-21.67 -0.48,-31.02 z"
       fill="#0b281d"
       id="path4" />
    <path
       d="m 129.45,54.16 -9.24,-5.9 -5.02,9.14 2.43,-10.15 c -5.2,-2.31 -11.64,-2.47 -15.86,-2.29 l -1.75,7.95 -1.58,-7.69 c -6.24,0.35 -12.6,2.49 -15.2,3.61 l 0.78,7.95 -4.7,-5.14 C 72.95,54.71 66.22,62.66 65.83,63.45 l 5.65,4.46 -6.43,-1.85 c -2.86,4.33 -4.96,10.7 -5.74,12.84 l 5.93,1.24 -6.33,0.92 c -0.85,5.14 0.01,11.87 0.4,14.87 l 5.61,-0.65 -5.29,2.5 c 1.52,6.37 -0.59,13.1 -2.47,16.93 5.55,-1.05 10.97,-9.52 10.65,-14.11 -2.99,-14.27 0.13,-24.56 9.96,-33.49 11.34,-10.46 26.44,-10.07 38.84,-1.37 l 0.46,-2.03 4.83,-6.24 z"
       fill="url(#paint2_linear_131_2001)"
       id="path5"
       style="fill:url(#paint2_linear_131_2001)" />
    <path
       d="m 123.14,73.81 c -7.27,9.14 -14.67,13.1 -25.75,16.41 3.65,2.44 3.65,10.71 -2.14,13.68 4.09,4.94 2.86,9.5 0.36,14.71 6.43,6.04 16.2,12.35 24.15,17.49 l 6.43,-23.99 -0.98,-29.1 z"
       fill="url(#paint3_linear_131_2001)"
       id="path6"
       style="fill:url(#paint3_linear_131_2001)" />
    <path
       d="m 116.41,66.85 c -7,-5.54 -15.31,-8.73 -26.26,-6.19 -14.02,3.51 -21.88,16.1 -21.62,28.43 v 2.98 h 2.88 c -0.46,-13.82 8.78,-26.2 23.06,-28.36 7.77,-1.18 13.66,0.92 20.39,5.31 z"
       fill="url(#paint4_linear_131_2001)"
       id="path7"
       style="fill:url(#paint4_linear_131_2001)" />
    <path
       d="m 124.06,74.14 4.96,38.67 -4.01,-2.77 -1.28,-11.33 -16.97,-5.86 2.43,8.27 10.82,5.34 2.8,29.77 -22.8,-15.99 -3.87,-2.97 c 2.68,-4.88 2.48,-10.42 -1.15,-13.5 5.92,-2.65 6.12,-11.05 1.15,-14.36 8.97,-3.22 17.27,-7.71 26.61,-16.06 z"
       fill="#8ae29a"
       stroke="#0b281d"
       stroke-width="0.8"
       stroke-miterlimit="10"
       id="path8" />
    <path
       d="m 118.01,83.14 2.8,-1.04 1.61,11.76 -2.2,-0.13 z"
       fill="#aef4b6"
       id="path9" />
    <path
       d="m 115.25,86.84 1.68,-0.72 0.72,6.6 -1.58,-0.52 z"
       fill="#aef4b6"
       id="path10" />
    <path
       d="m 99.29,94.71 c 0,5.2 -4.07,8.41 -7.66,8.41 -4.7,0 -8.34,-3.28 -8.34,-8.41 0,-4.88 3.64,-8.06 8.34,-8.06 4.57,0 7.66,3.18 7.66,8.06 z"
       fill="#0b281d"
       id="path11" />
    <path
       d="m 96.86,94.91 c 0,4.27 -3.1,6.47 -5.63,6.47 -3.52,0 -5.89,-2.54 -5.89,-6.47 0,-3.83 2.57,-6.15 5.89,-6.15 3.49,0 5.63,2.25 5.63,6.15 z"
       fill="url(#paint5_linear_131_2001)"
       stroke="#8ae29a"
       stroke-width="0.8"
       stroke-miterlimit="10"
       id="path12"
       style="fill:url(#paint5_linear_131_2001)" />
    <path
       d="m 95.12,94.81 c 0,2.9 -2.21,4 -3.79,4 -2.37,0 -3.88,-1.69 -3.88,-4.1 0,-2.38 1.58,-3.96 3.88,-3.96 2.37,0 3.79,1.52 3.79,4.06 z"
       fill="url(#paint6_linear_131_2001)"
       id="path13"
       style="fill:url(#paint6_linear_131_2001)" />
    <path
       d="m 100.01,99.03 c 1.42,4.74 7.14,8.96 11.7,11.13 l 2.76,-2.85 -0.52,5.3 -1.94,1.51 -1.35,12.02 -12.55,-8.28 c 2.5,-5.25 3.05,-10.26 1.9,-18.83 z"
       fill="#377f57"
       id="path14" />
    <path
       d="m 98.76,105.22 c 2.86,4.03 7.35,6.17 9.95,7.39 l 2.43,16 -1.42,-0.98 -1.59,-13.57 c -2.53,-1.84 -7.49,-5.35 -9.37,-8.84 z"
       fill="#216d47"
       id="path16" />
    <path
       d="M 115.12,74.79 C 109.26,69.15 104.09,67.24 96.99,67.9 85.25,68.95 76.01,79.36 76.4,90.75 c -0.13,4.67 0.91,8.7 1.96,11.67 l 6.43,-1.49 c -2.86,-3.31 -2.73,-10.71 3.06,-13.5 1.71,-0.85 5.26,-0.65 7.27,0.07 5.99,-1.77 15.1,-7.35 20,-12.71 z"
       fill="url(#paint7_linear_131_2001)"
       stroke="#0b281d"
       stroke-width="0.8"
       stroke-miterlimit="10"
       id="path17"
       style="fill:url(#paint7_linear_131_2001)" />
    <path
       d="m 79.21,82.23 5.58,-0.52 0.92,-1.56 c 1.35,-2.54 5,-3.2 7.79,-3 l 1.23,-2.03 C 90.44,74.33 84.27,77.28 82.06,80.6 l -3.9,0.46 -0.85,1.56 z"
       fill="#377f57"
       id="path18" />
    <path
       d="m 97.06,74.92 c 1.09,0 1.7,0.79 1.7,1.58 0,0.98 -0.92,1.57 -1.7,1.57 -0.92,0 -1.67,-0.72 -1.67,-1.57 0,-0.99 0.75,-1.58 1.67,-1.58 z"
       fill="#377f57"
       id="path19" />
    <path
       d="m 79.11,103.31 7.1,-1.57 1.05,2.61 -2.21,5.62 -4.03,2.77 -7.98,1.51 c 2.86,-3.5 4.8,-6.39 6.07,-10.94 z"
       fill="url(#paint8_linear_131_2001)"
       stroke="#0b281d"
       stroke-width="0.8"
       stroke-miterlimit="10"
       id="path20"
       style="fill:url(#paint8_linear_131_2001)" />
    <path
       d="m 81.02,121.09 1.59,-5.7 4.45,-1.66 -0.33,10.07 z"
       fill="#377f57"
       stroke="#0b281d"
       stroke-width="0.8"
       stroke-miterlimit="10"
       id="path21" />
    <path
       d="m 89.11,116.11 2.05,1.95 v 8.08 l -2.7,1.16 z"
       fill="#377f57"
       stroke="#0b281d"
       stroke-width="0.8"
       stroke-miterlimit="10"
       id="path22" />
    <path
       d="m 92.19,123.8 2.73,1.37 v 4.88 l -3.76,-2.55 z"
       fill="#377f57"
       stroke="#0b281d"
       stroke-width="0.8"
       stroke-miterlimit="10"
       id="path23" />
    <path
       d="m 63.04,125.05 6.79,-3.64 c 13.92,1.67 30.12,13.97 43.93,25.3 l 2.2,3.51 -8.22,5.86 -7.73,-8.27 -29.39,-12.76 z"
       fill="url(#paint9_linear_131_2001)"
       stroke="#0b281d"
       stroke-width="0.8"
       stroke-miterlimit="10"
       id="path24"
       style="fill:url(#paint9_linear_131_2001)" />
    <path
       d="m 66.16,127.3 c 6.02,0.07 11.88,1.84 15.77,3.61 l -0.65,1.5 3.71,1.24 -0.78,1.96 c -5.99,-2.74 -10.05,-3.46 -14.95,-3.66 z"
       fill="#8ae29a"
       id="path25" />
    <path
       d="m 72.05,137.81 c 11.24,0.92 21.77,9.32 31.47,19.3 l -2.88,1.7 c -12.41,-5.37 -21.92,-12.82 -28.59,-21 z"
       fill="url(#paint10_linear_131_2001)"
       id="path26"
       style="fill:url(#paint10_linear_131_2001)" />
    <path
       d="m 87.78,137.55 c 5.03,2.4 9.15,5.71 11.68,8.57 l -0.32,-3.18 -6,-5.52 z"
       fill="#377f57"
       id="path27" />
    <path
       d="m 105.11,135.05 -0.92,1.11 6.56,8.54 2.3,5.46 1.68,-1.05 -1.81,-5.26 z"
       fill="#8ae29a"
       id="path28" />
    <path
       d="m 129.26,67.44 c 0,-1.7 1.25,-2.35 2.3,-2.35 1.26,0 2.11,1.04 2.11,2.22 0,1.38 -1.12,2.23 -2.17,2.17 v 8.26 l -2.89,3.51"
       stroke="#377f57"
       stroke-width="1.5"
       stroke-miterlimit="10"
       id="path29" />
    <path
       d="m 135.92,72.7 c 0,-1.59 1.12,-2.18 2.04,-2.18 1.26,0 1.98,1.05 1.98,2.04 0,1.19 -0.99,2.1 -1.98,2.04 v 6.13 l -4.75,5.92 h -4.09"
       stroke="#377f57"
       stroke-width="1.5"
       stroke-miterlimit="10"
       id="path30" />
    <path
       d="m 143.33,66.72 c 0,-1.37 1.02,-1.96 1.91,-1.96 1.19,0 1.91,0.98 1.91,1.96 0,1.12 -0.99,1.97 -1.91,1.97 v 13.15 h 3.65"
       stroke="#377f57"
       stroke-width="1.5"
       stroke-miterlimit="10"
       id="path31" />
    <path
       d="m 129.91,91.34 h 8.64 l 4.52,-4.63 h 6.09"
       stroke="#377f57"
       stroke-width="1.5"
       stroke-miterlimit="10"
       id="path32" />
    <path
       d="m 130.43,96.73 h 12.31"
       stroke="#377f57"
       stroke-width="1.5"
       stroke-miterlimit="10"
       id="path33" />
    <path
       d="m 145.76,96.6 c 0,1.52 -1.19,2.17 -2.1,2.17 -1.26,0 -2.04,-1.11 -2.04,-2.11 0,-1.24 1.05,-2.02 2.04,-2.02 1.25,0 2.1,0.97 2.1,1.96 z"
       stroke="#377f57"
       stroke-width="1.5"
       stroke-miterlimit="10"
       id="path34" />
    <path
       d="m 131.76,101.71 h 6.4 l 5.56,5.33 h 1.52"
       stroke="#377f57"
       stroke-width="1.5"
       stroke-miterlimit="10"
       id="path35" />
    <path
       d="m 132.95,107.04 h 2.76 l 4.76,4.03 v 13.26"
       stroke="#377f57"
       stroke-width="1.5"
       stroke-miterlimit="10"
       id="path36" />
    <path
       d="m 133.67,123.73 c 0,1.53 -1.19,2.18 -2.11,2.18 -1.25,0 -2.04,-1.11 -2.04,-2.11 0,-1.25 1.05,-2.03 2.04,-2.03 1.26,0 2.11,0.98 2.11,1.96 z"
       stroke="#377f57"
       stroke-width="1.5"
       stroke-miterlimit="10"
       id="path37" />
    <path
       d="m 131.63,125.85 v 7.8 l -1.12,1.4"
       stroke="#377f57"
       stroke-width="1.5"
       stroke-miterlimit="10"
       id="path38" />
    <path
       d="m 105.21,71.84 2.4,0.86 0.85,2.42 3.65,-1.96 -2.53,-2.11 -4.37,-0.72 -1.95,0.72 z"
       fill="#fefffe"
       fill-opacity="0.61"
       id="path39" />
  </g>
  <defs
     id="defs82">
    <linearGradient
       id="paint0_linear_131_2001"
       x1="100.263"
       y1="32.0107"
       x2="100.263"
       y2="168.05"
       gradientUnits="userSpaceOnUse">
      <stop
         stop-color="#A9F0A2"
         id="stop61" />
      <stop
         offset="1"
         stop-color="#216D47"
         id="stop62" />
    </linearGradient>
    <linearGradient
       id="paint1_linear_131_2001"
       x1="100.46"
       y1="35.090801"
       x2="100.46"
       y2="164.616"
       gradientUnits="userSpaceOnUse">
      <stop
         stop-color="#A9F0A2"
         id="stop63" />
      <stop
         offset="1"
         stop-color="#216D47"
         id="stop64" />
    </linearGradient>
    <linearGradient
       id="paint2_linear_131_2001"
       x1="93.692398"
       y1="44.7271"
       x2="93.692398"
       y2="114.706"
       gradientUnits="userSpaceOnUse">
      <stop
         stop-color="#8AE29A"
         id="stop65" />
      <stop
         offset="1"
         stop-color="#216D47"
         id="stop66" />
    </linearGradient>
    <linearGradient
       id="paint3_linear_131_2001"
       x1="110.933"
       y1="73.810501"
       x2="110.933"
       y2="136.104"
       gradientUnits="userSpaceOnUse">
      <stop
         stop-color="#8AE29A"
         id="stop67" />
      <stop
         offset="1"
         stop-color="#216D47"
         id="stop68" />
    </linearGradient>
    <linearGradient
       id="paint4_linear_131_2001"
       x1="92.458099"
       y1="59.541"
       x2="92.458099"
       y2="92.066399"
       gradientUnits="userSpaceOnUse">
      <stop
         stop-color="#8AE29A"
         id="stop69" />
      <stop
         offset="1"
         stop-color="#216D47"
         id="stop70" />
    </linearGradient>
    <linearGradient
       id="paint5_linear_131_2001"
       x1="91.101402"
       y1="88.756798"
       x2="91.101402"
       y2="101.376"
       gradientUnits="userSpaceOnUse">
      <stop
         stop-color="#8AE29A"
         id="stop71" />
      <stop
         offset="1"
         stop-color="#216D47"
         id="stop72" />
    </linearGradient>
    <linearGradient
       id="paint6_linear_131_2001"
       x1="91.285103"
       y1="90.746101"
       x2="91.285103"
       y2="98.806396"
       gradientUnits="userSpaceOnUse">
      <stop
         stop-color="#8AE29A"
         id="stop73" />
      <stop
         offset="1"
         stop-color="#216D47"
         id="stop74" />
    </linearGradient>
    <linearGradient
       id="paint7_linear_131_2001"
       x1="96.0327"
       y1="67.6362"
       x2="96.0327"
       y2="102.421"
       gradientUnits="userSpaceOnUse">
      <stop
         stop-color="#8AE29A"
         id="stop75" />
      <stop
         offset="1"
         stop-color="#216D47"
         id="stop76" />
    </linearGradient>
    <linearGradient
       id="paint8_linear_131_2001"
       x1="80.148598"
       y1="101.116"
       x2="80.148598"
       y2="114.251"
       gradientUnits="userSpaceOnUse">
      <stop
         stop-color="#8AE29A"
         id="stop77" />
      <stop
         offset="1"
         stop-color="#216D47"
         id="stop78" />
    </linearGradient>
    <linearGradient
       id="paint9_linear_131_2001"
       x1="89.495598"
       y1="121.087"
       x2="89.495598"
       y2="156.67"
       gradientUnits="userSpaceOnUse">
      <stop
         stop-color="#8AE29A"
         id="stop79" />
      <stop
         offset="1"
         stop-color="#216D47"
         id="stop80" />
    </linearGradient>
    <linearGradient
       id="paint10_linear_131_2001"
       x1="87.783203"
       y1="137.67799"
       x2="87.783203"
       y2="158.806"
       gradientUnits="userSpaceOnUse">
      <stop
         stop-color="#8AE29A"
         id="stop81" />
      <stop
         offset="1"
         stop-color="#216D47"
         id="stop82" />
    </linearGradient>
    <linearGradient
       id="paint1_linear_1214_2218"
       x1="25.610001"
       x2="25.610001"
       y1="194.89999"
       y2="219.5"
       gradientUnits="userSpaceOnUse"
       gradientTransform="matrix(0.72162103,0,0,0.72162103,10.68774,26.401219)">
      <stop
         stop-color="#FEFFFE"
         offset="0"
         id="stop39" />
      <stop
         stop-color="#91D09A"
         offset="1"
         id="stop40" />
    </linearGradient>
    <linearGradient
       id="paint2_linear_1214_2218"
       x1="59.349998"
       x2="59.349998"
       y1="194.89999"
       y2="219.5"
       gradientUnits="userSpaceOnUse"
       gradientTransform="matrix(0.72162103,0,0,0.72162103,10.68774,26.401219)">
      <stop
         stop-color="#FEFFFE"
         offset="0"
         id="stop41" />
      <stop
         stop-color="#91D09A"
         offset="1"
         id="stop42" />
    </linearGradient>
    <linearGradient
       id="paint3_linear_1214_2218"
       x1="92.610001"
       x2="92.610001"
       y1="194.89999"
       y2="219.5"
       gradientUnits="userSpaceOnUse"
       gradientTransform="matrix(0.72162103,0,0,0.72162103,10.68774,26.401219)">
      <stop
         stop-color="#FEFFFE"
         offset="0"
         id="stop43" />
      <stop
         stop-color="#91D09A"
         offset="1"
         id="stop44" />
    </linearGradient>
    <linearGradient
       id="paint4_linear_1214_2218"
       x1="124.9"
       x2="124.9"
       y1="194.89999"
       y2="219.5"
       gradientUnits="userSpaceOnUse"
       gradientTransform="matrix(0.72162103,0,0,0.72162103,10.68774,26.401219)">
      <stop
         stop-color="#FEFFFE"
         offset="0"
         id="stop45" />
      <stop
         stop-color="#91D09A"
         offset="1"
         id="stop46" />
    </linearGradient>
    <linearGradient
       id="paint5_linear_1214_2218"
       x1="154.60001"
       x2="154.60001"
       y1="195"
       y2="219.5"
       gradientUnits="userSpaceOnUse"
       gradientTransform="matrix(0.72162103,0,0,0.72162103,10.68774,26.401219)">
      <stop
         stop-color="#FEFFFE"
         offset="0"
         id="stop47" />
      <stop
         stop-color="#91D09A"
         offset="1"
         id="stop48" />
    </linearGradient>
    <linearGradient
       id="paint6_linear_1214_2218"
       x1="185.2"
       x2="185.2"
       y1="194.5"
       y2="218.8"
       gradientUnits="userSpaceOnUse"
       gradientTransform="matrix(0.72162103,0,0,0.72162103,10.68774,26.401219)">
      <stop
         stop-color="#FEFFFE"
         offset="0"
         id="stop49" />
      <stop
         stop-color="#91D09A"
         offset="1"
         id="stop50" />
    </linearGradient>
    <linearGradient
       id="paint7_linear_1214_2218"
       x1="219.60001"
       x2="219.60001"
       y1="194.89999"
       y2="219.5"
       gradientUnits="userSpaceOnUse"
       gradientTransform="matrix(0.72162103,0,0,0.72162103,10.68774,26.401219)">
      <stop
         stop-color="#FEFFFE"
         offset="0"
         id="stop51" />
      <stop
         stop-color="#91D09A"
         offset="1"
         id="stop52" />
    </linearGradient>
  </defs>
  <g
     id="g83"
     transform="translate(0,-3.4839412)">
    <path
       d="m 179.81445,179.28385 c 2.72052,-2.23703 2.67431,-6.20595 2.56607,-7.88011 -0.32473,-5.00083 -3.84373,-6.67499 -8.15902,-6.67499 h -19.23842 v 1.50819 c -1.94116,-1.54427 -4.44518,-1.50819 -7.15126,-1.50819 h -6.19873 c -2.82875,0 -5.08742,0.0866 -6.82653,1.47932 v -1.47932 H 97.072993 c -6.249238,0 -8.594506,3.65862 -8.594506,8.83264 v 2.46954 l -5.628644,-11.30218 h -9.900641 l -6.393562,12.43513 c 0.129892,-0.86595 0.202054,-3.29219 0.202054,-4.24473 0,-5.2534 -2.864835,-8.1904 -8.652236,-8.1904 H 38.960852 v 1.06478 c -1.37108,-0.77935 -2.980295,-1.06478 -4.878158,-1.06478 H 15.912276 v 23.1496 h 10.983073 v -5.82348 h 6.270886 c 2.908133,0 5.000834,-1.01749 6.371914,-2.69886 v 8.52234 h 11.752777 v -6.1421 l 4.101237,6.1421 h 16.885932 l 2.395782,-4.65746 h 6.660562 l 2.294755,4.65746 h 28.410216 v -13.3572 h 5.3833 v 12.96031 h 10.62226 v -12.96031 h 2.51124 v 4.24313 c 0,6.14821 4.14932,9.11407 10.5068,9.11407 h 5.36886 c 3.93284,0 7.03581,-0.75048 9.09965,-2.65556 v 2.65556 h 11.9759 v -5.65217 l 4.13779,5.65217 h 15.16969 z"
       fill="#00261a"
       id="path2-6"
       style="stroke-width:0.721621" />
    <path
       d="m 18.784328,167.04515 h 14.208718 c 4.567861,0 6.552319,2.33084 6.552319,6.23481 0,3.31224 -1.912296,5.99667 -6.335833,5.99667 h -9.373857 v 5.5204 h -5.051347 z m 5.051347,7.4327 h 7.858453 c 1.731891,0 2.525674,-0.97419 2.525674,-2.38135 0,-1.5154 -0.793783,-2.38135 -2.525674,-2.38135 h -7.858453 z"
       fill="url(#paint1_linear_1214_2218)"
       id="path3-7"
       style="fill:url(#paint1_linear_1214_2218);stroke-width:0.721621" />
    <path
       d="m 42.020525,167.04515 h 14.822096 c 4.943104,0 6.747157,2.12879 6.747157,6.31419 0,2.95864 -1.298918,4.69053 -3.75243,5.48432 l 4.79878,5.95337 h -6.783237 l -4.221483,-5.88121 h -6.559536 v 5.88121 h -5.051347 z m 5.051347,7.36054 h 8.291426 c 1.948377,0 2.74216,-0.90203 2.74216,-2.38135 0,-1.40716 -0.793783,-2.30919 -2.669998,-2.30919 h -8.363588 z"
       fill="url(#paint2_linear_1214_2218)"
       id="path4-5"
       style="fill:url(#paint2_linear_1214_2218);stroke-width:0.721621" />
    <path
       d="m 74.507904,167.04515 h 6.314184 l 8.731614,17.75188 v 0 H 84.68276 l -1.767971,-3.96892 H 72.343041 l -1.984458,3.96892 h -4.870942 v 0 z m -0.252567,10.13878 h 6.494589 l -3.06689,-6.31419 z"
       fill="url(#paint3_linear_1214_2218)"
       id="path5-3"
       style="fill:url(#paint3_linear_1214_2218);stroke-width:0.721621" />
    <path
       d="m 91.220647,172.6738 c 0,-3.86068 2.381349,-5.62865 6.205941,-5.62865 h 13.018042 v 3.75243 H 98.797668 c -1.912296,0 -2.525674,0.82987 -2.74216,2.56176 h 12.368582 v 3.68026 H 96.055508 v 0.64946 c 0.03608,2.05662 0.793783,2.88649 3.139051,2.88649 h 11.250071 v 4.22148 H 98.400776 c -4.762699,0 -7.180129,-2.02054 -7.180129,-6.8554 z"
       fill="url(#paint4_linear_1214_2218)"
       id="path6-5"
       style="fill:url(#paint4_linear_1214_2218);stroke-width:0.721621" />
    <path
       d="m 112.58063,167.04515 h 19.41161 v 3.60811 h -7.18013 v 14.14377 h -5.05135 v -14.14377 h -7.18013 z"
       fill="url(#paint5_linear_1214_2218)"
       id="path7-6"
       style="fill:url(#paint5_linear_1214_2218);stroke-width:0.721621" />
    <path
       d="m 134.08494,172.60164 c 0,-4.47406 2.81432,-5.55649 6.96364,-5.55649 h 6.60283 c 4.14932,0 6.96365,1.08243 6.96365,5.55649 v 5.26783 c 0,4.47405 -2.81433,6.92756 -6.96365,6.92756 h -6.60283 c -4.14932,0 -6.96364,-2.45351 -6.96364,-6.92756 z m 4.83486,3.86067 c 0,2.56175 0.64946,3.6081 3.21121,3.6081 h 4.43797 c 2.56176,0 3.21122,-1.04635 3.21122,-3.6081 v -2.02054 c 0,-2.27311 -0.64946,-3.60811 -3.49987,-3.60811 h -3.86067 c -2.8504,0 -3.49986,1.335 -3.49986,3.60811 z"
       fill="url(#paint6_linear_1214_2218)"
       id="path8-2"
       style="fill:url(#paint6_linear_1214_2218);stroke-width:0.721621" />
    <path
       d="m 157.82627,167.04515 h 14.82931 c 4.94311,0 6.74716,2.12879 6.74716,6.31419 0,2.95864 -1.29892,4.69053 -3.75243,5.48432 l 4.79878,5.95337 h -6.78324 l -4.22148,-5.88121 h -6.56675 v 5.88121 h -5.05135 z m 5.05135,7.36054 h 8.29864 c 1.94838,0 2.74216,-0.90203 2.74216,-2.38135 0,-1.40716 -0.79378,-2.30919 -2.67,-2.30919 h -8.3708 z"
       fill="url(#paint7_linear_1214_2218)"
       id="path9-9"
       style="fill:url(#paint7_linear_1214_2218);stroke-width:0.721621" />
  </g>
</svg>
